<?xml version="1.0" standalone="no"?>
<!DOCTYPE svg PUBLIC "-//W3C//DTD SVG 20010904//EN"
 "http://www.w3.org/TR/2001/REC-SVG-20010904/DTD/svg10.dtd">
<svg version="1.0" xmlns="http://www.w3.org/2000/svg"
 width="1200.000000pt" height="1200.000000pt" viewBox="0 0 1200.000000 1200.000000"
 preserveAspectRatio="xMidYMid meet">
<metadata>
Created by potrace 1.14, written by Peter Selinger 2001-2017
</metadata>
<g transform="translate(0.000000,1200.000000) scale(0.100000,-0.100000)"
fill="#000000" stroke="none">
<path d="M6702 7759 c-107 -14 -235 -101 -299 -202 -81 -128 -86 -302 -12
-410 98 -142 288 -186 456 -106 259 124 334 460 143 640 -72 67 -169 94 -288
78z"/>
<path d="M1779 7652 c-8 -1 -41 -58 -73 -125 -32 -67 -88 -183 -123 -257 -36
-74 -87 -180 -113 -235 -26 -55 -87 -181 -135 -280 -48 -99 -114 -236 -147
-305 -33 -69 -90 -186 -125 -260 -36 -74 -89 -184 -118 -245 -29 -60 -88 -182
-130 -270 -43 -88 -101 -209 -130 -270 -29 -60 -85 -177 -125 -260 -157 -326
-223 -463 -255 -530 -18 -38 -54 -113 -80 -165 -26 -52 -51 -105 -56 -117 l-9
-23 323 0 323 0 31 68 c53 114 228 503 258 572 16 36 34 71 40 78 10 11 110
13 501 14 269 0 492 2 496 4 7 5 -34 145 -65 219 -44 107 -112 184 -197 223
-55 26 -57 26 -302 26 -169 0 -245 3 -240 11 3 5 21 31 39 56 18 26 33 49 33
52 0 4 45 107 101 229 56 123 109 241 119 263 10 22 82 182 160 355 78 173
155 353 171 400 16 47 29 78 29 70 1 -8 3 -24 5 -35 2 -11 6 -42 9 -70 3 -27
8 -63 11 -80 23 -111 106 -504 145 -685 11 -52 23 -108 26 -125 3 -16 16 -80
29 -142 14 -61 26 -122 29 -135 2 -13 38 -184 80 -381 42 -197 78 -368 80
-380 3 -12 23 -110 46 -217 23 -107 44 -206 46 -220 3 -13 12 -55 20 -93 8
-37 14 -71 14 -73 0 -3 290 -3 645 -1 l646 3 46 45 c25 24 67 64 93 89 66 64
174 162 320 291 73 64 335 275 415 334 22 16 45 34 52 40 6 5 27 20 45 33 18
13 78 55 133 94 89 63 265 180 411 274 28 18 63 38 77 45 15 7 27 15 27 19 0
4 8 10 18 14 9 3 24 10 32 15 46 31 173 104 345 198 99 54 393 203 400 203 4
0 4 -17 1 -37 -7 -48 -14 -95 -21 -158 -4 -27 -8 -62 -10 -76 -2 -15 -7 -55
-10 -90 -3 -35 -8 -71 -10 -79 -2 -8 -7 -46 -10 -84 -3 -38 -7 -71 -9 -75 -2
-3 -6 -38 -10 -76 -4 -39 -8 -81 -11 -95 -4 -29 -12 -93 -20 -165 -3 -27 -8
-68 -11 -90 -2 -22 -7 -56 -9 -75 -8 -69 -17 -145 -20 -160 -1 -8 -6 -44 -9
-80 -4 -36 -9 -74 -11 -85 -2 -11 -4 -35 -4 -52 -1 -18 -5 -33 -9 -33 -8 0
-110 73 -297 213 -113 84 -330 244 -489 360 l-158 116 -27 -17 c-77 -48 -401
-293 -401 -302 0 -3 19 -18 43 -35 23 -16 47 -33 52 -38 6 -4 75 -55 154 -112
79 -58 153 -111 165 -120 12 -8 89 -64 171 -125 83 -60 155 -113 160 -117 6
-4 289 -9 631 -11 l621 -3 7 63 c3 35 8 77 11 93 2 17 11 91 20 165 9 74 18
146 20 160 6 40 14 111 20 171 3 31 8 67 10 80 3 13 7 49 10 79 3 30 7 71 10
90 10 74 15 117 20 160 2 25 6 61 9 80 3 19 8 58 11 85 3 28 7 61 10 75 2 14
7 52 10 85 3 33 8 74 10 90 5 34 42 337 50 405 3 25 8 64 11 87 l6 42 132 52
c332 130 839 298 1141 379 237 64 413 108 560 141 50 11 97 22 105 24 21 6
259 56 290 61 94 17 198 37 215 40 11 3 36 7 55 9 19 3 46 7 60 10 46 10 65
13 145 25 80 11 111 16 163 24 15 3 54 8 87 12 33 3 68 8 79 10 18 3 108 15
156 19 14 2 40 3 58 4 17 1 32 6 32 12 0 5 -3 8 -7 6 -5 -3 -48 -8 -98 -12
-49 -4 -106 -8 -125 -10 -19 -2 -71 -6 -115 -10 -44 -3 -93 -8 -110 -10 -16
-1 -66 -6 -110 -10 -44 -3 -87 -8 -95 -10 -8 -2 -44 -7 -80 -10 -73 -7 -115
-12 -215 -25 -38 -5 -89 -12 -112 -15 -107 -13 -133 -17 -213 -30 -47 -8 -105
-16 -130 -20 -25 -3 -72 -11 -105 -17 -33 -5 -73 -12 -90 -14 -16 -3 -52 -9
-80 -14 -70 -13 -105 -19 -145 -26 -19 -3 -51 -9 -70 -14 -19 -5 -52 -11 -73
-14 -39 -6 -108 -21 -267 -56 -47 -11 -96 -21 -110 -24 -14 -2 -54 -12 -90
-21 -36 -9 -78 -19 -95 -22 -16 -2 -37 -6 -45 -9 -8 -3 -85 -23 -170 -45 -85
-22 -211 -56 -280 -76 -69 -19 -129 -36 -135 -37 -5 -1 -14 -4 -20 -7 -5 -4
-21 -9 -36 -12 -25 -6 -25 -6 -21 53 l4 60 -320 0 -320 0 -8 -67 c-4 -38 -8
-70 -9 -73 -1 -3 -5 -39 -10 -80 -5 -41 -10 -78 -11 -82 -1 -5 -2 -16 -3 -26
-1 -11 -18 -23 -53 -36 -110 -38 -427 -165 -553 -221 -420 -186 -822 -390
-1107 -561 -50 -30 -92 -54 -94 -54 -7 0 -426 -270 -434 -279 -3 -4 -18 -15
-35 -25 -62 -39 -315 -226 -445 -329 -87 -69 -308 -258 -379 -326 -8 -7 -16
-10 -18 -5 -4 13 -272 1146 -278 1174 -2 8 -8 35 -15 60 -7 25 -14 56 -17 70
-2 14 -13 61 -25 105 -11 44 -22 91 -25 105 -2 14 -18 81 -34 150 -17 69 -32
132 -34 141 -3 15 -59 252 -171 724 -25 105 -59 246 -76 315 -16 69 -32 134
-34 145 -2 11 -6 29 -8 40 -2 11 -9 38 -15 60 l-10 40 -309 0 c-170 0 -315 -1
-323 -3z"/>
<path d="M8555 6743 c-16 -2 -74 -13 -128 -24 -609 -126 -1056 -592 -1132
-1179 -4 -30 -9 -64 -11 -75 -7 -32 -7 -255 0 -310 28 -234 124 -435 286 -596
147 -147 323 -237 554 -286 114 -24 456 -22 496 2 4 2 22 7 41 10 67 12 215
67 314 117 214 107 392 259 527 449 180 255 262 518 262 844 1 131 -7 194 -39
325 -67 276 -294 532 -566 641 -66 26 -170 57 -219 64 -19 3 -47 8 -60 11 -30
6 -283 12 -325 7z m211 -486 c71 -26 102 -45 148 -93 118 -119 167 -281 161
-529 -2 -77 -5 -150 -8 -162 -3 -11 -9 -43 -13 -70 -18 -125 -106 -341 -179
-439 -123 -164 -274 -244 -457 -242 -172 2 -291 77 -376 235 -56 106 -75 199
-76 368 -1 171 4 213 39 350 27 104 36 127 92 241 63 129 184 259 290 309 108
53 285 67 379 32z"/>
<path d="M10988 6725 c-2 -2 -25 -6 -52 -9 -228 -31 -434 -142 -569 -308 -106
-130 -166 -294 -165 -453 0 -246 130 -399 478 -567 69 -33 179 -87 245 -119
122 -59 213 -126 240 -178 68 -133 -35 -302 -209 -341 -147 -33 -416 2 -663
85 -73 25 -134 45 -137 45 -4 0 -31 -53 -101 -205 -18 -38 -49 -103 -68 -143
-42 -85 -52 -73 112 -133 252 -94 499 -135 791 -132 412 5 780 255 878 598 68
239 34 411 -113 561 -83 85 -199 157 -463 289 -256 128 -338 188 -364 267 -34
104 9 201 111 253 75 37 172 46 351 30 83 -7 103 -10 228 -40 57 -14 107 -25
110 -25 4 0 14 15 21 33 25 56 151 321 166 348 14 25 14 27 -13 37 -105 40
-274 80 -411 97 -91 11 -394 19 -403 10z"/>
<path d="M3016 6102 c10 -9 39 -31 464 -341 151 -110 280 -204 286 -209 6 -5
35 -27 65 -48 30 -22 61 -44 69 -51 8 -6 35 -27 60 -46 l45 -33 130 82 c72 46
135 88 142 93 7 6 14 11 17 11 13 0 176 104 174 111 -3 6 -180 137 -244 179
-12 8 -99 70 -193 138 l-170 122 -427 0 c-236 0 -424 -4 -418 -8z"/>
</g>
</svg>
